PathFileType        4      (X/Y/Z)      C:\Users\pc\Desktop\IMUTRC\Sujet_01\Sujet_01_velo_60.trc         
DataRate	CameraRate	NumFrames	NumMarkers	Units	OrigDataRate	OrigDataStartFrame	OrigNumFrames
60.0	60.0	4	64	mm	60.0	857	1370
Frame#	Time	pHipOrigin			pRightASI			pLeftASI			pRightCSI			pLeftCSI			pRightIschialTub			pLeftIschialTub			pSacrum			pL5SpinalProcess			pL3SpinalProcess			pT12SpinalProcess			pIJ			pT4SpinalProcess			pT8SpinalProcess			pPX			pC7SpinalProcess			pTopOfHead			pRightAuricularis			pLeftAuricularis			pBackOfHead			pRightAcromion			pLeftAcromion			pRightArmLatEpicondyle			pRightArmMedEpicondyle			pLeftArmLatEpicondyle			pLeftArmMedEpicondyle			pRightUlnarStyloid			pRightRadialStyloid			pRightOlecranon			pLeftUlnarStyloid			pLeftRadialStyloid			pLeftOlecranon			pRightTopOfHand			pRightPinky			pRightBallHand			pLeftTopOfHand			pLeftPinky			pLeftBallHand			pRightGreaterTrochanter			pRightKneeLatEpicondyle			pRightKneeMedEpicondyle			pRightPatella			pLeftGreaterTrochanter			pLeftKneeLatEpicondyle			pLeftKneeMedEpicondyle			pLeftPatella			pRightTibialTub			pRightLatMalleolus			pRightMedMalleolus			pLeftTibialTub			pLeftLatMalleolus			pLeftMedMalleolus			pRightHeelFoot			pRightFirstMetatarsal			pRightFifthMetatarsal			pRightPivotFoot			pRightHeelCenter			pRightToe			pLeftHeelFoot			pLeftFirstMetatarsal			pLeftFifthMetatarsal			pLeftPivotFoot			pLeftHeelCenter			pLeftToe			
		X1	Y1	Z1	X2	Y2	Z2	X3	Y3	Z3	X4	Y4	Z4	X5	Y5	Z5	X6	Y6	Z6	X7	Y7	Z7	X8	Y8	Z8	X9	Y9	Z9	X10	Y10	Z10	X11	Y11	Z11	X12	Y12	Z12	X13	Y13	Z13	X14	Y14	Z14	X15	Y15	Z15	X16	Y16	Z16	X17	Y17	Z17	X18	Y18	Z18	X19	Y19	Z19	X20	Y20	Z20	X21	Y21	Z21	X22	Y22	Z22	X23	Y23	Z23	X24	Y24	Z24	X25	Y25	Z25	X26	Y26	Z26	X27	Y27	Z27	X28	Y28	Z28	X29	Y29	Z29	X30	Y30	Z30	X31	Y31	Z31	X32	Y32	Z32	X33	Y33	Z33	X34	Y34	Z34	X35	Y35	Z35	X36	Y36	Z36	X37	Y37	Z37	X38	Y38	Z38	X39	Y39	Z39	X40	Y40	Z40	X41	Y41	Z41	X42	Y42	Z42	X43	Y43	Z43	X44	Y44	Z44	X45	Y45	Z45	X46	Y46	Z46	X47	Y47	Z47	X48	Y48	Z48	X49	Y49	Z49	X50	Y50	Z50	X51	Y51	Z51	X52	Y52	Z52	X53	Y53	Z53	X54	Y54	Z54	X55	Y55	Z55	X56	Y56	Z56	X57	Y57	Z57	X58	Y58	Z58	X59	Y59	Z59	X60	Y60	Z60	X61	Y61	Z61	X62	Y62	Z62	X63	Y63	Z63	X64	Y64	Z64	
857	14.267	0.0	1249.99075	7.653985854756496E-14	29.984689999999983	1331.45859	141.8143900000001	113.52694000000001	1328.0641	-93.0971199999999	9.177699999999986	1398.59412	109.94387000000009	77.88476000000001	1395.82824	-83.22794999999991	-73.17019	1207.62244	28.978920000000063	-38.78522999999999	1206.2395	-67.57555999999992	-53.99759	1279.40969	-19.61262999999993	-5.720349999999999	1365.71783	-4.148829999999918	49.59732	1455.86048	14.709470000000094	102.84058	1536.51113	33.12774000000011	323.16834	1564.86144	118.55582000000014	227.11675	1658.14714	78.26193000000013	164.63293	1608.61268	55.12909000000012	240.44328	1493.38849	88.06824000000012	259.11299	1682.34862	90.39410000000012	378.9889	1874.82897	100.51472000000015	345.42113	1792.98396	174.25066000000015	381.31475	1771.79981	49.15729000000016	314.30494	1788.83514	96.55448000000015	213.66449999999998	1646.455	259.5530200000001	322.79117	1627.97387	-75.24459999999986	296.38955999999996	1430.08748	331.46599000000015	280.86288999999994	1403.81159	287.0232700000002	449.83323	1424.36713	-97.12022999999986	413.37386	1392.62233	-73.17018999999986	392.18969999999996	1270.0434	420.5400100000001	423.99735999999996	1272.36926	390.3667400000001	271.3708899999999	1419.77828	324.4255600000002	599.06522	1280.0383	-96.17730999999985	602.33399	1283.62138	-52.488929999999854	428.58622	1410.66343	-107.74372999999986	565.93748	1253.07094	462.59401000000014	485.72684999999996	1254.07671	472.27460000000013	431.41495999999995	1255.27107	431.4778200000001	753.82897	1231.50962	-23.950039999999834	699.13991	1249.29928	-80.71350999999984	632.31868	1261.55717	-82.34788999999986	-18.22969000000002	1249.99075	145.9003500000001	308.33315	1166.57422	223.2193700000001	327.88291	1162.04823	159.0383000000001	325.55706	1201.14776	188.45724000000013	48.842990000000015	1227.6751	-139.73997999999992	224.22514	930.78265	-114.28127999999991	219.07054	927.38816	-47.39718999999992	252.19828	950.45814	-75.18173999999992	348.6899	1121.88005	199.3321900000001	153.38080999999997	796.19728	187.20002000000008	170.22755999999998	793.80856	129.55650000000009	269.67364	895.26619	-81.21639999999991	177.51943000000003	531.23821	-139.42566999999994	177.77087	526.5865	-79.45628999999994	91.14842999999999	675.81848	112.45831000000005	259.86732	619.99793	169.09606000000005	212.28155999999998	619.49504	243.39775000000006	256.78714	611.95172	218.00191000000007	125.21908999999998	660.29182	134.14535000000006	316.63079999999997	592.52767	256.1585300000001	77.94763000000002	422.99159	-118.05293999999996	224.91662	351.07862	-28.66460999999995	244.96927	338.94645	-113.71552999999996	256.28425	334.3576	-63.42673999999995	114.21842000000001	402.43605	-106.61223999999996	321.34537	305.94443	-44.06554999999994	
858	14.283	0.0	1249.99075	7.653985854756496E-14	29.921829999999982	1331.45859	141.8143900000001	113.58981000000001	1328.00123	-93.0342599999999	9.240569999999986	1398.65698	109.94387000000009	78.01049000000002	1395.76538	-83.1650899999999	-73.17019	1207.6853	28.978920000000063	-38.78522999999999	1206.2395	-67.57555999999992	-53.93473	1279.40969	-19.67548999999993	-5.657489999999999	1365.71783	-4.148829999999918	49.72304	1455.86048	14.772330000000094	103.09202	1536.44827	33.2534600000001	323.35692	1564.54713	118.74441000000014	227.43105	1657.95856	78.51337000000012	164.88437	1608.4241	55.31767000000012	240.569	1493.13705	88.1939700000001	259.4273	1682.03432	90.58268000000012	378.1717	1874.89183	100.70330000000016	344.54108	1793.04682	174.37638000000015	381.69192	1771.67409	49.723040000000154	314.11636	1788.39511	96.42876000000015	214.10452999999998	1646.32928	259.7416000000001	323.2312	1627.91101	-74.99315999999986	296.89244999999994	1430.02462	331.46599000000015	281.4914999999999	1403.81159	286.9604100000002	450.5247	1424.55571	-96.93163999999986	414.06533	1392.74805	-73.17018999999986	392.8811799999999	1270.10626	420.5400100000001	424.75169999999997	1272.43212	390.30387000000013	271.99949999999995	1419.77828	324.4255600000002	599.69383	1280.16402	-96.30302999999985	603.02546	1283.68424	-52.61464999999985	429.27769	1410.78916	-107.61800999999986	566.62895	1253.19666	462.59401000000014	486.41832999999997	1254.20243	472.27460000000013	432.10642999999993	1255.33393	431.4778200000001	754.45758	1231.19531	-24.201479999999833	699.70566	1249.17356	-80.90208999999984	632.94729	1261.62003	-82.47361999999985	-18.355410000000017	1250.43077	145.9003500000001	308.27029	1168.2086	224.09942000000012	327.94577	1163.36831	159.98121000000012	325.4942	1202.65642	189.2115700000001	49.15729000000002	1227.92654	-139.67711999999992	227.30533	932.60562	-114.21841999999991	222.08787	929.14826	-47.27145999999991	255.02703	952.53255	-75.05601999999992	350.45001	1124.52022	200.5265500000001	167.27308999999997	791.79701	190.5316500000001	184.24555999999998	789.65973	132.82527000000007	271.55947	895.83194	-81.46783999999991	168.71889000000002	535.88992	-146.34037999999995	168.40459	530.16957	-86.49671999999995	110.19530999999999	668.2123	116.85858000000006	281.05148	620.06079	174.06208000000007	233.52856999999997	618.30068	248.36376000000007	278.28559	612.39175	223.09365000000005	144.89457999999996	654.38289	138.73420000000004	338.82072999999997	595.92217	261.4388500000001	66.25548000000002	429.71771	-127.16777999999995	211.0872	352.65014	-38.533789999999954	231.07699000000002	341.46089	-123.71041999999996	242.14053	335.74054	-73.48449999999995	101.89766000000002	408.09353	-115.91565999999996	306.38446	305.37868	-54.37474999999994	
859	14.3	0.0	1249.99075	7.653985854756496E-14	29.85896999999998	1331.52145	141.8143900000001	113.65267000000001	1328.00123	-92.9713999999999	9.114839999999985	1398.65698	109.88101000000009	78.07335000000002	1395.76538	-83.1650899999999	-73.17019	1207.6853	28.916050000000062	-38.72236999999999	1206.2395	-67.57555999999992	-53.93473	1279.40969	-19.67548999999993	-5.657489999999999	1365.71783	-4.148829999999918	49.72304	1455.86048	14.772330000000094	103.02916	1536.44827	33.2534600000001	323.35692	1564.48427	118.68155000000014	227.43105	1657.95856	78.51337000000012	164.88437	1608.4241	55.31767000000012	240.50614	1493.13705	88.13111000000012	259.4273	1681.97146	90.45696000000012	377.10307	1875.14327	100.45186000000015	343.34672	1793.36113	174.18780000000015	381.81764	1771.79981	49.911620000000156	313.67633	1788.20653	95.92587000000016	214.23024999999998	1646.51786	259.6787400000001	323.29406	1628.09959	-74.99315999999986	297.20674999999994	1430.2132	331.34027000000015	281.93152999999995	1404.06303	286.7089700000002	450.83901	1424.87002	-96.93163999999986	414.37963	1392.93663	-73.35876999999986	393.2583399999999	1270.42057	420.4771500000001	425.1288599999999	1272.68356	390.17815000000013	272.31379999999996	1419.96686	324.2998400000002	600.00813	1280.41547	-96.55447999999984	603.33976	1283.93568	-52.86608999999985	429.59199	1411.10346	-107.74372999999986	567.00611	1253.51096	462.53115000000014	486.7954899999999	1254.51674	472.14888000000013	432.48359999999997	1255.64824	431.4149600000001	754.70902	1231.19531	-24.515789999999832	699.9571	1249.29928	-81.21639999999984	633.26159	1261.80861	-82.72505999999986	-18.54399000000002	1250.5565	145.9003500000001	307.70454	1167.70571	224.9794800000001	327.50575	1162.7397	160.9869900000001	325.05417	1202.09068	190.09163000000012	49.59732000000002	1228.17799	-139.6142499999999	231.76846	935.3715	-113.65266999999992	226.48814	931.85129	-46.768579999999915	259.11299	955.73846	-74.42740999999991	351.58151	1125.21169	201.65805000000012	180.47389999999996	786.01379	193.6118400000001	197.50921999999997	784.19083	135.9683200000001	274.63966	897.40347	-81.40497999999991	160.54696000000004	542.17602	-153.19222999999994	159.79263	535.4499	-93.41142999999995	128.23641999999998	659.72607	120.94454000000006	300.72697	618.67784	178.65093000000005	253.26691999999997	615.66052	252.88976000000005	298.21253	611.26025	227.74536000000006	163.37570999999997	647.40532	142.88303000000005	359.3762699999999	597.43083	266.27915000000013	55.19195000000001	438.39253	-136.09403999999998	197.69781	356.04464	-48.40295999999996	217.68760000000003	345.7983	-133.70531999999994	228.37397	338.94645	-83.54224999999995	90.26838000000001	415.63685	-125.15622999999995	291.73785	306.6359	-64.80967999999994	
860	14.317	0.0	1249.99075	7.653985854756496E-14	29.670389999999983	1331.64717	141.8143900000001	113.58981000000001	1328.12696	-92.9713999999999	8.863399999999986	1398.71985	109.81815000000009	77.88476000000001	1395.82824	-83.22794999999991	-73.17019	1207.55958	28.916050000000062	-38.65950999999999	1206.11378	-67.57555999999992	-53.99759	1279.28397	-19.73834999999993	-5.846069999999999	1365.71783	-4.211689999999917	49.4716	1455.92334	14.646610000000095	102.71485	1536.57399	33.06488000000011	323.10548	1564.79858	118.30438000000014	226.99103	1658.21	78.19907000000013	164.50721	1608.67555	55.12909000000012	240.31756	1493.38849	87.87966000000011	258.98727	1682.2229	90.01693000000013	375.78299	1875.77188	99.69753000000016	341.83805	1794.11546	173.43347000000014	381.5662	1772.17698	49.66018000000015	312.922	1788.39511	94.98295000000016	214.10452999999998	1646.95789	259.4273000000001	322.9169	1628.4139	-75.24459999999986	297.20674999999994	1430.71609	330.96310000000017	281.93152999999995	1404.56592	286.39466000000016	450.77615	1425.3729	-97.18308999999986	414.19105	1393.37666	-73.79879999999986	393.2583399999999	1270.98632	420.2257100000001	425.0659999999999	1273.24931	389.9895700000001	272.31379999999996	1420.46975	323.92267000000015	599.88241	1280.85549	-96.93163999999985	603.21404	1284.37571	-53.18039999999985	429.46627	1411.54349	-108.05803999999986	567.00611	1254.01385	462.27971000000014	486.7954899999999	1255.08249	471.96030000000013	432.48359999999997	1256.21399	431.1635200000001	754.5833	1231.63534	-24.955809999999833	699.83138	1249.7393	-81.59355999999984	633.13587	1262.24864	-83.16508999999986	-18.858300000000018	1250.30505	145.9003500000001	306.6359	1165.12841	225.85953000000012	326.56283	1160.1624	161.8670400000001	324.29984	1199.45051	191.0974000000001	50.22593000000001	1228.49229	-139.4885299999999	237.6774	939.20602	-112.70974999999991	232.27135	935.62295	-45.825659999999914	264.5819	960.07587	-73.42162999999991	352.14726	1123.82874	202.9152700000001	192.73178999999996	778.97336	196.56631000000007	209.89283999999998	777.33898	138.92278000000007	278.97707	900.04363	-81.15353999999992	153.06651000000002	550.28509	-159.85548999999995	151.93501	542.42747	-100.20041999999995	145.02029999999996	650.4855	124.59048000000006	318.70521	615.78624	182.79975000000005	271.24515999999994	611.63741	257.03858000000014	316.37935	608.68295	231.95705000000007	180.53675999999996	639.54769	146.71755000000005	377.9202599999999	597.17939	270.67941000000013	44.81988000000002	449.26748	-145.08315999999996	184.55986	361.32496	-58.46071999999996	204.67538000000002	352.14726	-143.82593999999995	214.92172	344.10105	-93.78858999999996	79.20484000000002	425.38031	-134.39678999999998	277.27982	309.65323	-75.43318999999995	
